<mxfile host="app.diagrams.net" agent="Mozilla/5.0 (Windows NT 10.0; Win64; x64) AppleWebKit/537.36 (KHTML, like Gecko) Chrome/132.0.0.0 Safari/537.36 Edg/132.0.0.0" version="26.0.7">
  <diagram name="Page-1" id="h86h2ReU51MnAGpxwcOK">
    <mxGraphModel dx="1282" dy="1727" grid="1" gridSize="10" guides="1" tooltips="1" connect="1" arrows="1" fold="1" page="1" pageScale="1" pageWidth="850" pageHeight="1100" math="0" shadow="0">
      <root>
        <mxCell id="0" />
        <mxCell id="1" parent="0" />
        <mxCell id="e2gd0mp9l5kRxaPh8PN6-1" value="Student&lt;div&gt;&lt;br&gt;&lt;/div&gt;" style="whiteSpace=wrap;html=1;shape=umlActor;verticalLabelPosition=bottom;verticalAlign=top;outlineConnect=0;" vertex="1" parent="1">
          <mxGeometry y="80" width="120" height="80" as="geometry" />
        </mxCell>
        <mxCell id="e2gd0mp9l5kRxaPh8PN6-2" value="Supervisior" style="whiteSpace=wrap;html=1;shape=umlActor;verticalLabelPosition=bottom;verticalAlign=top;outlineConnect=0;" vertex="1" parent="1">
          <mxGeometry y="410" width="120" height="80" as="geometry" />
        </mxCell>
        <mxCell id="e2gd0mp9l5kRxaPh8PN6-3" value="" style="rounded=0;whiteSpace=wrap;html=1;" vertex="1" parent="1">
          <mxGeometry x="170" y="-80" width="660" height="750" as="geometry" />
        </mxCell>
        <mxCell id="e2gd0mp9l5kRxaPh8PN6-4" value="Warden" style="whiteSpace=wrap;html=1;shape=umlActor;verticalLabelPosition=bottom;verticalAlign=top;outlineConnect=0;" vertex="1" parent="1">
          <mxGeometry y="280" width="120" height="80" as="geometry" />
        </mxCell>
        <mxCell id="e2gd0mp9l5kRxaPh8PN6-5" value="Mess staff" style="whiteSpace=wrap;html=1;shape=umlActor;verticalLabelPosition=bottom;verticalAlign=top;outlineConnect=0;" vertex="1" parent="1">
          <mxGeometry x="860" y="360" width="120" height="80" as="geometry" />
        </mxCell>
        <mxCell id="e2gd0mp9l5kRxaPh8PN6-6" value="System" style="whiteSpace=wrap;html=1;shape=umlActor;verticalLabelPosition=bottom;verticalAlign=top;outlineConnect=0;" vertex="1" parent="1">
          <mxGeometry x="860" y="30" width="120" height="80" as="geometry" />
        </mxCell>
        <mxCell id="e2gd0mp9l5kRxaPh8PN6-7" value="request room" style="ellipse;whiteSpace=wrap;html=1;" vertex="1" parent="1">
          <mxGeometry x="200" y="110" width="120" height="80" as="geometry" />
        </mxCell>
        <mxCell id="e2gd0mp9l5kRxaPh8PN6-8" value="view fee status" style="ellipse;whiteSpace=wrap;html=1;" vertex="1" parent="1">
          <mxGeometry x="365" y="-40" width="120" height="80" as="geometry" />
        </mxCell>
        <mxCell id="e2gd0mp9l5kRxaPh8PN6-9" value="checkin/checkout" style="ellipse;whiteSpace=wrap;html=1;" vertex="1" parent="1">
          <mxGeometry x="640" y="110" width="120" height="80" as="geometry" />
        </mxCell>
        <mxCell id="e2gd0mp9l5kRxaPh8PN6-10" value="approve room" style="ellipse;whiteSpace=wrap;html=1;" vertex="1" parent="1">
          <mxGeometry x="210" y="230" width="120" height="80" as="geometry" />
        </mxCell>
        <mxCell id="e2gd0mp9l5kRxaPh8PN6-11" value="maintain student record" style="ellipse;whiteSpace=wrap;html=1;" vertex="1" parent="1">
          <mxGeometry x="365" y="230" width="120" height="80" as="geometry" />
        </mxCell>
        <mxCell id="e2gd0mp9l5kRxaPh8PN6-12" value="manage complain" style="ellipse;whiteSpace=wrap;html=1;" vertex="1" parent="1">
          <mxGeometry x="510" y="230" width="120" height="80" as="geometry" />
        </mxCell>
        <mxCell id="e2gd0mp9l5kRxaPh8PN6-13" value="add remove student" style="ellipse;whiteSpace=wrap;html=1;" vertex="1" parent="1">
          <mxGeometry x="220" y="360" width="120" height="80" as="geometry" />
        </mxCell>
        <mxCell id="e2gd0mp9l5kRxaPh8PN6-14" value="staff attendance" style="ellipse;whiteSpace=wrap;html=1;" vertex="1" parent="1">
          <mxGeometry x="430" y="360" width="120" height="80" as="geometry" />
        </mxCell>
        <mxCell id="e2gd0mp9l5kRxaPh8PN6-15" value="update food record" style="ellipse;whiteSpace=wrap;html=1;" vertex="1" parent="1">
          <mxGeometry x="610" y="360" width="120" height="80" as="geometry" />
        </mxCell>
        <mxCell id="e2gd0mp9l5kRxaPh8PN6-16" value="handle staff room" style="ellipse;whiteSpace=wrap;html=1;" vertex="1" parent="1">
          <mxGeometry x="230" y="480" width="120" height="80" as="geometry" />
        </mxCell>
        <mxCell id="e2gd0mp9l5kRxaPh8PN6-17" value="update complain" style="ellipse;whiteSpace=wrap;html=1;" vertex="1" parent="1">
          <mxGeometry x="430" y="480" width="120" height="80" as="geometry" />
        </mxCell>
        <mxCell id="e2gd0mp9l5kRxaPh8PN6-18" value="view complain" style="ellipse;whiteSpace=wrap;html=1;" vertex="1" parent="1">
          <mxGeometry x="620" y="480" width="120" height="80" as="geometry" />
        </mxCell>
        <mxCell id="e2gd0mp9l5kRxaPh8PN6-19" value="handle student checkin/checkout" style="ellipse;whiteSpace=wrap;html=1;" vertex="1" parent="1">
          <mxGeometry x="650" y="230" width="120" height="80" as="geometry" />
        </mxCell>
        <mxCell id="e2gd0mp9l5kRxaPh8PN6-20" value="pay fee" style="ellipse;whiteSpace=wrap;html=1;" vertex="1" parent="1">
          <mxGeometry x="370" y="110" width="120" height="80" as="geometry" />
        </mxCell>
        <mxCell id="e2gd0mp9l5kRxaPh8PN6-21" value="raise complain" style="ellipse;whiteSpace=wrap;html=1;" vertex="1" parent="1">
          <mxGeometry x="510" y="110" width="120" height="80" as="geometry" />
        </mxCell>
        <mxCell id="e2gd0mp9l5kRxaPh8PN6-22" value="store data" style="ellipse;whiteSpace=wrap;html=1;" vertex="1" parent="1">
          <mxGeometry x="690" y="-40" width="120" height="80" as="geometry" />
        </mxCell>
        <mxCell id="e2gd0mp9l5kRxaPh8PN6-23" value="get data" style="ellipse;whiteSpace=wrap;html=1;" vertex="1" parent="1">
          <mxGeometry x="560" y="-40" width="120" height="80" as="geometry" />
        </mxCell>
        <mxCell id="e2gd0mp9l5kRxaPh8PN6-24" value="" style="endArrow=none;html=1;rounded=0;entryX=0;entryY=0.5;entryDx=0;entryDy=0;" edge="1" parent="1" target="e2gd0mp9l5kRxaPh8PN6-6">
          <mxGeometry width="50" height="50" relative="1" as="geometry">
            <mxPoint x="610" y="70" as="sourcePoint" />
            <mxPoint x="420" y="270" as="targetPoint" />
            <Array as="points" />
          </mxGeometry>
        </mxCell>
        <mxCell id="e2gd0mp9l5kRxaPh8PN6-25" value="" style="endArrow=none;html=1;rounded=0;entryX=0.412;entryY=1.018;entryDx=0;entryDy=0;entryPerimeter=0;" edge="1" parent="1" target="e2gd0mp9l5kRxaPh8PN6-23">
          <mxGeometry width="50" height="50" relative="1" as="geometry">
            <mxPoint x="610" y="70" as="sourcePoint" />
            <mxPoint x="630" y="40" as="targetPoint" />
          </mxGeometry>
        </mxCell>
        <mxCell id="e2gd0mp9l5kRxaPh8PN6-26" value="" style="endArrow=none;html=1;rounded=0;entryX=0.332;entryY=0.976;entryDx=0;entryDy=0;entryPerimeter=0;" edge="1" parent="1" target="e2gd0mp9l5kRxaPh8PN6-22">
          <mxGeometry width="50" height="50" relative="1" as="geometry">
            <mxPoint x="730" y="70" as="sourcePoint" />
            <mxPoint x="780" y="20" as="targetPoint" />
          </mxGeometry>
        </mxCell>
        <mxCell id="e2gd0mp9l5kRxaPh8PN6-27" value="" style="endArrow=none;html=1;rounded=0;" edge="1" parent="1">
          <mxGeometry width="50" height="50" relative="1" as="geometry">
            <mxPoint x="100" y="89" as="sourcePoint" />
            <mxPoint x="650" y="90" as="targetPoint" />
            <Array as="points">
              <mxPoint x="450" y="89" />
              <mxPoint x="650" y="90" />
              <mxPoint x="680" y="90" />
            </Array>
          </mxGeometry>
        </mxCell>
        <mxCell id="e2gd0mp9l5kRxaPh8PN6-28" value="" style="endArrow=open;endFill=1;endSize=12;html=1;rounded=0;entryX=0.437;entryY=0.049;entryDx=0;entryDy=0;entryPerimeter=0;" edge="1" parent="1" target="e2gd0mp9l5kRxaPh8PN6-20">
          <mxGeometry width="160" relative="1" as="geometry">
            <mxPoint x="420" y="40" as="sourcePoint" />
            <mxPoint x="580" y="40" as="targetPoint" />
          </mxGeometry>
        </mxCell>
        <mxCell id="e2gd0mp9l5kRxaPh8PN6-29" value="&amp;lt;&amp;lt;include&amp;gt;&amp;gt;" style="edgeLabel;html=1;align=center;verticalAlign=middle;resizable=0;points=[];" vertex="1" connectable="0" parent="e2gd0mp9l5kRxaPh8PN6-28">
          <mxGeometry x="-0.4944" y="-2" relative="1" as="geometry">
            <mxPoint as="offset" />
          </mxGeometry>
        </mxCell>
        <mxCell id="e2gd0mp9l5kRxaPh8PN6-30" value="" style="endArrow=none;html=1;rounded=0;exitX=0.975;exitY=0.639;exitDx=0;exitDy=0;exitPerimeter=0;" edge="1" parent="1" source="e2gd0mp9l5kRxaPh8PN6-4">
          <mxGeometry width="50" height="50" relative="1" as="geometry">
            <mxPoint x="80" y="330" as="sourcePoint" />
            <mxPoint x="670" y="330" as="targetPoint" />
            <Array as="points">
              <mxPoint x="420" y="330" />
              <mxPoint x="560" y="330" />
              <mxPoint x="700" y="330" />
            </Array>
          </mxGeometry>
        </mxCell>
        <mxCell id="e2gd0mp9l5kRxaPh8PN6-31" value="" style="endArrow=none;html=1;rounded=0;exitX=0.59;exitY=0.038;exitDx=0;exitDy=0;exitPerimeter=0;" edge="1" parent="1" source="e2gd0mp9l5kRxaPh8PN6-7">
          <mxGeometry width="50" height="50" relative="1" as="geometry">
            <mxPoint x="220" y="140" as="sourcePoint" />
            <mxPoint x="270" y="90" as="targetPoint" />
            <Array as="points">
              <mxPoint x="270" y="110" />
            </Array>
          </mxGeometry>
        </mxCell>
        <mxCell id="e2gd0mp9l5kRxaPh8PN6-32" value="" style="endArrow=none;html=1;rounded=0;" edge="1" parent="1">
          <mxGeometry width="50" height="50" relative="1" as="geometry">
            <mxPoint x="470" y="122" as="sourcePoint" />
            <mxPoint x="470" y="90" as="targetPoint" />
          </mxGeometry>
        </mxCell>
        <mxCell id="e2gd0mp9l5kRxaPh8PN6-33" value="" style="endArrow=none;html=1;rounded=0;exitX=0.597;exitY=0.049;exitDx=0;exitDy=0;exitPerimeter=0;" edge="1" parent="1" source="e2gd0mp9l5kRxaPh8PN6-21">
          <mxGeometry width="50" height="50" relative="1" as="geometry">
            <mxPoint x="530" y="140" as="sourcePoint" />
            <mxPoint x="580" y="90" as="targetPoint" />
            <Array as="points">
              <mxPoint x="580" y="110" />
            </Array>
          </mxGeometry>
        </mxCell>
        <mxCell id="e2gd0mp9l5kRxaPh8PN6-34" value="" style="endArrow=none;html=1;rounded=0;" edge="1" parent="1">
          <mxGeometry width="50" height="50" relative="1" as="geometry">
            <mxPoint x="680" y="110" as="sourcePoint" />
            <mxPoint x="680" y="90" as="targetPoint" />
          </mxGeometry>
        </mxCell>
        <mxCell id="e2gd0mp9l5kRxaPh8PN6-35" value="" style="endArrow=none;html=1;rounded=0;" edge="1" parent="1">
          <mxGeometry width="50" height="50" relative="1" as="geometry">
            <mxPoint x="280" y="330" as="sourcePoint" />
            <mxPoint x="280" y="310" as="targetPoint" />
          </mxGeometry>
        </mxCell>
        <mxCell id="e2gd0mp9l5kRxaPh8PN6-36" value="" style="endArrow=none;html=1;rounded=0;" edge="1" parent="1">
          <mxGeometry width="50" height="50" relative="1" as="geometry">
            <mxPoint x="450" y="330" as="sourcePoint" />
            <mxPoint x="450" y="310" as="targetPoint" />
          </mxGeometry>
        </mxCell>
        <mxCell id="e2gd0mp9l5kRxaPh8PN6-37" value="" style="endArrow=none;html=1;rounded=0;" edge="1" parent="1">
          <mxGeometry width="50" height="50" relative="1" as="geometry">
            <mxPoint x="600" y="330" as="sourcePoint" />
            <mxPoint x="600" y="300" as="targetPoint" />
          </mxGeometry>
        </mxCell>
        <mxCell id="e2gd0mp9l5kRxaPh8PN6-38" value="" style="endArrow=none;html=1;rounded=0;" edge="1" parent="1">
          <mxGeometry width="50" height="50" relative="1" as="geometry">
            <mxPoint x="700" y="330" as="sourcePoint" />
            <mxPoint x="700" y="310" as="targetPoint" />
          </mxGeometry>
        </mxCell>
        <mxCell id="e2gd0mp9l5kRxaPh8PN6-39" value="" style="endArrow=classic;html=1;rounded=0;entryX=0.339;entryY=0.054;entryDx=0;entryDy=0;entryPerimeter=0;" edge="1" parent="1" target="e2gd0mp9l5kRxaPh8PN6-10">
          <mxGeometry relative="1" as="geometry">
            <mxPoint x="250" y="190" as="sourcePoint" />
            <mxPoint x="350" y="190" as="targetPoint" />
          </mxGeometry>
        </mxCell>
        <mxCell id="e2gd0mp9l5kRxaPh8PN6-40" value="Label" style="edgeLabel;resizable=0;html=1;;align=center;verticalAlign=middle;" connectable="0" vertex="1" parent="e2gd0mp9l5kRxaPh8PN6-39">
          <mxGeometry relative="1" as="geometry" />
        </mxCell>
        <mxCell id="e2gd0mp9l5kRxaPh8PN6-41" value="&amp;lt;&amp;lt;include&amp;gt;&amp;gt;" style="edgeLabel;html=1;align=center;verticalAlign=middle;resizable=0;points=[];" vertex="1" connectable="0" parent="e2gd0mp9l5kRxaPh8PN6-39">
          <mxGeometry x="-0.1097" y="3" relative="1" as="geometry">
            <mxPoint as="offset" />
          </mxGeometry>
        </mxCell>
        <mxCell id="e2gd0mp9l5kRxaPh8PN6-42" value="" style="endArrow=classic;html=1;rounded=0;" edge="1" parent="1">
          <mxGeometry relative="1" as="geometry">
            <mxPoint x="700" y="190" as="sourcePoint" />
            <mxPoint x="700" y="230" as="targetPoint" />
          </mxGeometry>
        </mxCell>
        <mxCell id="e2gd0mp9l5kRxaPh8PN6-43" value="Label" style="edgeLabel;resizable=0;html=1;;align=center;verticalAlign=middle;" connectable="0" vertex="1" parent="e2gd0mp9l5kRxaPh8PN6-42">
          <mxGeometry relative="1" as="geometry" />
        </mxCell>
        <mxCell id="e2gd0mp9l5kRxaPh8PN6-44" value="&amp;lt;&amp;lt;include&amp;gt;&amp;gt;" style="edgeLabel;html=1;align=center;verticalAlign=middle;resizable=0;points=[];" vertex="1" connectable="0" parent="e2gd0mp9l5kRxaPh8PN6-42">
          <mxGeometry x="0.099" y="2" relative="1" as="geometry">
            <mxPoint as="offset" />
          </mxGeometry>
        </mxCell>
        <mxCell id="e2gd0mp9l5kRxaPh8PN6-45" value="" style="endArrow=none;html=1;rounded=0;entryX=1;entryY=0.712;entryDx=0;entryDy=0;entryPerimeter=0;" edge="1" parent="1" target="e2gd0mp9l5kRxaPh8PN6-3">
          <mxGeometry width="50" height="50" relative="1" as="geometry">
            <mxPoint x="500" y="460" as="sourcePoint" />
            <mxPoint x="819.3400000000001" y="462.9000000000001" as="targetPoint" />
          </mxGeometry>
        </mxCell>
        <mxCell id="e2gd0mp9l5kRxaPh8PN6-46" value="" style="endArrow=none;html=1;rounded=0;" edge="1" parent="1">
          <mxGeometry width="50" height="50" relative="1" as="geometry">
            <mxPoint x="830" y="450" as="sourcePoint" />
            <mxPoint x="880" y="450" as="targetPoint" />
            <Array as="points">
              <mxPoint x="850" y="450" />
            </Array>
          </mxGeometry>
        </mxCell>
        <mxCell id="e2gd0mp9l5kRxaPh8PN6-47" value="" style="endArrow=none;html=1;rounded=0;" edge="1" parent="1">
          <mxGeometry width="50" height="50" relative="1" as="geometry">
            <mxPoint x="500" y="460" as="sourcePoint" />
            <mxPoint x="500" y="440" as="targetPoint" />
          </mxGeometry>
        </mxCell>
        <mxCell id="e2gd0mp9l5kRxaPh8PN6-48" value="" style="endArrow=none;html=1;rounded=0;" edge="1" parent="1">
          <mxGeometry width="50" height="50" relative="1" as="geometry">
            <mxPoint x="690" y="460" as="sourcePoint" />
            <mxPoint x="690" y="440" as="targetPoint" />
          </mxGeometry>
        </mxCell>
        <mxCell id="e2gd0mp9l5kRxaPh8PN6-49" value="" style="endArrow=none;html=1;rounded=0;" edge="1" parent="1">
          <mxGeometry width="50" height="50" relative="1" as="geometry">
            <mxPoint x="500" y="481" as="sourcePoint" />
            <mxPoint x="500" y="460" as="targetPoint" />
          </mxGeometry>
        </mxCell>
        <mxCell id="e2gd0mp9l5kRxaPh8PN6-50" value="" style="endArrow=none;html=1;rounded=0;exitX=0.752;exitY=0.053;exitDx=0;exitDy=0;exitPerimeter=0;" edge="1" parent="1" source="e2gd0mp9l5kRxaPh8PN6-18">
          <mxGeometry width="50" height="50" relative="1" as="geometry">
            <mxPoint x="660" y="510" as="sourcePoint" />
            <mxPoint x="690" y="460" as="targetPoint" />
            <Array as="points">
              <mxPoint x="690" y="480" />
            </Array>
          </mxGeometry>
        </mxCell>
        <mxCell id="e2gd0mp9l5kRxaPh8PN6-51" value="" style="endArrow=none;html=1;rounded=0;" edge="1" parent="1">
          <mxGeometry width="50" height="50" relative="1" as="geometry">
            <mxPoint x="490" y="580" as="sourcePoint" />
            <mxPoint x="710" y="580" as="targetPoint" />
            <Array as="points">
              <mxPoint x="890" y="580" />
            </Array>
          </mxGeometry>
        </mxCell>
        <mxCell id="e2gd0mp9l5kRxaPh8PN6-52" value="" style="endArrow=none;html=1;rounded=0;entryX=0.5;entryY=1;entryDx=0;entryDy=0;" edge="1" parent="1" target="e2gd0mp9l5kRxaPh8PN6-17">
          <mxGeometry width="50" height="50" relative="1" as="geometry">
            <mxPoint x="490" y="580" as="sourcePoint" />
            <mxPoint x="510" y="560" as="targetPoint" />
          </mxGeometry>
        </mxCell>
        <mxCell id="e2gd0mp9l5kRxaPh8PN6-53" value="" style="endArrow=none;html=1;rounded=0;" edge="1" parent="1">
          <mxGeometry width="50" height="50" relative="1" as="geometry">
            <mxPoint x="690" y="580" as="sourcePoint" />
            <mxPoint x="690" y="560" as="targetPoint" />
          </mxGeometry>
        </mxCell>
        <mxCell id="e2gd0mp9l5kRxaPh8PN6-54" value="" style="endArrow=none;html=1;rounded=0;exitX=1;exitY=0.5;exitDx=0;exitDy=0;" edge="1" parent="1">
          <mxGeometry width="50" height="50" relative="1" as="geometry">
            <mxPoint x="120" y="452" as="sourcePoint" />
            <mxPoint x="300" y="480" as="targetPoint" />
            <Array as="points">
              <mxPoint x="210" y="452" />
              <mxPoint x="300" y="452" />
            </Array>
          </mxGeometry>
        </mxCell>
        <mxCell id="e2gd0mp9l5kRxaPh8PN6-55" value="" style="endArrow=none;html=1;rounded=0;entryX=0.665;entryY=0.977;entryDx=0;entryDy=0;entryPerimeter=0;" edge="1" parent="1" target="e2gd0mp9l5kRxaPh8PN6-13">
          <mxGeometry width="50" height="50" relative="1" as="geometry">
            <mxPoint x="300" y="450" as="sourcePoint" />
            <mxPoint x="300" y="440" as="targetPoint" />
          </mxGeometry>
        </mxCell>
        <mxCell id="e2gd0mp9l5kRxaPh8PN6-56" value="Maintenance staff&lt;div&gt;&lt;br&gt;&lt;/div&gt;" style="whiteSpace=wrap;html=1;shape=umlActor;verticalLabelPosition=bottom;verticalAlign=top;outlineConnect=0;" vertex="1" parent="1">
          <mxGeometry x="890" y="530" width="120" height="80" as="geometry" />
        </mxCell>
        <mxCell id="e2gd0mp9l5kRxaPh8PN6-57" value="&lt;font style=&quot;font-size: 18px;&quot;&gt;&lt;b&gt;Hostel Management System&lt;/b&gt;&lt;/font&gt;" style="text;html=1;align=center;verticalAlign=middle;resizable=0;points=[];autosize=1;strokeColor=none;fillColor=none;" vertex="1" parent="1">
          <mxGeometry x="360" y="-115" width="260" height="40" as="geometry" />
        </mxCell>
      </root>
    </mxGraphModel>
  </diagram>
</mxfile>
